<?xml version="1.0"?>
<svg width="700" height="260" xmlns="http://www.w3.org/2000/svg" xmlns:svg="http://www.w3.org/2000/svg">
 <!-- Created with SVG-edit - https://github.com/SVG-Edit/svgedit-->
 <defs>
  <linearGradient id="svg_8" x1="0.56" x2="0.12" y1="0.06" y2="0.94">
   <stop id="jq_stop_2204" offset="0" stop-color="#9aa8af"/>
   <stop id="jq_stop_8395" offset="1" stop-color="#655750"/>
   <stop id="jq_stop_6165" offset="1" stop-color="#655750"/>
  </linearGradient>
 </defs>
 <g class="layer">
  <title>Layer 1</title>
  <rect fill="#c1732a" height="13.43" id="svg_71" stroke="#700505" stroke-width="0" transform="matrix(0.995799 0.091567 -0.091567 0.995799 13.7546 -59.5109)" width="19.43" x="612.79" y="101.68"/>
  <rect fill="#c4c423" height="13.43" id="svg_74" stroke="#700505" stroke-width="0" transform="matrix(0.995799 0.091567 -0.091567 0.995799 13.7546 -59.5109)" width="19.43" x="612.85" y="114.87"/>
  <rect fill="#bfbfbf" height="13.43" id="svg_77" stroke="#700505" stroke-width="0" transform="matrix(1 0 0 1 0 0) matrix(1.96443 0.133671 -0.180636 1.45368 -528.479 -139.983)" width="19.43" x="573.18" y="114.23"/>
  <rect fill="#f48e2e" height="13.43" id="svg_78" stroke="#700505" stroke-width="0" transform="rotate(0.0000290159 571.117 98.7511) matrix(1.29769 0.246091 -0.119327 2.67626 -146.734 -360.564)" width="19.43" x="554.47" y="113.03"/>
  <rect fill="#0670db" height="13.43" id="svg_75" stroke="#700505" stroke-width="0" transform="matrix(0.995799 0.091567 -0.091567 0.995799 13.5696 -57.7629)" width="19.43" x="619.16" y="112.82"/>
  <rect fill="#91d34a" height="13.43" id="svg_72" stroke="#700505" stroke-width="0" transform="matrix(0.995799 0.091567 -0.091567 0.995799 13.5696 -57.7629)" width="19.43" x="619.07" y="99.35"/>
  <path d="m540.59,110.41l37.65,0.29l14.35,12.93l90.98,-1.15c-0.11,3.45 0.85,8.45 -1.18,11.66c-2.03,3.21 -2.61,3.83 -4.69,7.5c-2.08,3.67 -1.41,3.26 -2.11,7.83l-0.36,8.86c-36.09,0.77 -123.71,3.01 -129.54,-1.72c-5.83,-4.74 -5.19,-38 -5.1,-46.2z" fill="#212749" id="svg_60" stroke="#700505" stroke-width="0" transform="rotate(5.51081 612.112 134.975)"/>
  <ellipse cx="77.7" cy="52.7" fill="#b20000" id="svg_50" rx="13.11" ry="15.68" stroke="#000000" stroke-width="0" transform="matrix(1 0 0 1 0 0)"/>
  <ellipse cx="81.62" cy="54.46" fill="#c61717" id="svg_51" rx="9.05" ry="15.68" stroke="#000000" stroke-width="0" transform="matrix(1 0 0 1 0 0)"/>
  <path d="m-1.58,146.27c0,0 35.28,-4.02 94.87,-2.23c59.59,1.79 76.83,5.87 146.2,15.42c69.37,9.56 81.7,6.95 112.74,5.65c31.04,-1.31 74.38,-6.9 98.2,-9.07c23.82,-2.17 78.47,-5.87 77.85,-5.87c-0.63,0 42.97,-1.96 73.45,-1.96c30.48,0 48.96,1.14 67.8,1.96c18.84,0.81 32.02,2.45 31.39,2.45c-0.63,0 0.63,104.61 0,104.12c-0.63,-0.48 -701.87,0.98 -701.87,0.49c0,-0.48 -0.63,-110.97 -0.63,-110.97z" fill="#2779c6" id="svg_3" stroke="#000000" stroke-width="0" transform="matrix(1 0 0 1 0 0)"/>
  <path d="m116.31,186.05c0,0 39.25,-3.09 68.98,-2.67c24.3,0.88 62.62,2.36 89.54,5.33c49.08,5.7 108.12,8.67 112.1,8.67c15.29,-0.91 75.62,-2.67 80.26,-2.67c4.64,0 42.15,-2.85 65,-4.67c19.69,-2.27 53.79,-3.58 76.94,-0.67c16.82,2.91 55.05,7.33 65,7.33c9.95,0 26.53,0.67 26.53,0c0,-0.67 1.33,52.67 1.33,52c0,-0.67 -702.43,2.67 -702.43,2c0,-0.67 0,-66 0,-66c0,0 116.74,1.33 116.74,1.33z" fill="#2c89e0" id="svg_42" stroke="#000000" stroke-width="0"/>
  <path d="m-2.02,157.69l32.31,-1.54l11.54,6.15l63.08,0.77l10,7.69l18.46,4.62l4.62,13.08l14.62,8.46l-23.08,4.62l-43.08,1.54l-14.62,0.77l9.23,7.69c0,0 -10,6.92 -10.77,6.92c-0.77,0 -25.38,0 -26.15,0c-0.77,0 -9.23,5.38 -10,4.62c-0.77,-0.77 -29.23,0.77 -30,0c-0.77,-0.77 -1.45,-0.09 -4.09,-0.58c-2.64,-0.49 -2.06,-64.81 -2.06,-64.81l-0.01,0z" fill="#2f383d" id="svg_6" stroke="url(#svg_8)" stroke-width="0" transform="matrix(1 0 0 1 0 0)"/>
  <path d="m53.48,189.13c0,0 10.43,4.78 10.43,4.78c0,0 3.91,4.35 3.91,4.35c0,0 0.43,-6.96 0.43,-6.96c0,0 -6.52,-3.48 -6.52,-3.48c0,0 -8.26,1.3 -8.26,1.3z" fill="#1f2528" id="svg_4" stroke="url(#svg_8)" stroke-width="0"/>
  <path d="m35.65,212.61l7.39,5.65l11.3,-0.43l0.87,-6.96l-15.22,-6.96l-12.17,-2.17l7.83,10.87z" fill="#1f272b" id="svg_5" stroke="url(#svg_8)" stroke-width="0"/>
  <path d="m64.62,81.03l27.06,0l15.03,97.83l-56.52,0l14.43,-97.83z" fill="#d8d8d8" id="svg_9" stroke="#000000" stroke-width="0" transform="matrix(1 0 0 1 0 0)"/>
  <path d="m64.55,81.09l26.91,0l4.91,31.45l-36.36,0.18l4.55,-31.64z" fill="#b20000" id="svg_16" stroke="#000000" stroke-width="0" transform="matrix(1 0 0 1 0 0)"/>
  <path d="m55.91,139.32c0,0 44.77,0 44.77,0c0,0 6.14,40 6.14,40c0,0 -56.82,0 -56.82,0c0,0 5.91,-40 5.91,-40z" fill="#b20000" id="svg_17" stroke="#000000" stroke-width="0" transform="matrix(1 0 0 1 0 0)"/>
  <path d="m65.91,139.32l2.95,-26.59l5.23,-0.23l-1.14,26.82l-7.05,0z" fill="#eae5e5" id="svg_18" stroke="#000000" stroke-width="0" transform="matrix(1 0 0 1 0 0)"/>
  <path d="m69.28,112.73l5.39,0.02l2,-31.91l-4.64,0l-2.75,31.88z" fill="#c61717" id="svg_19" stroke="#000000" stroke-width="0" transform="matrix(1 0 0 1 0 0)"/>
  <path d="m65.97,139.31c0,0 7.08,0.14 7.08,0.14c0,0 -1.94,39.86 -1.94,39.86c0,0 -10.56,-0.14 -10.56,-0.14c0,0 5.42,-39.86 5.42,-39.86z" fill="#c61717" id="svg_20" stroke="#000000" stroke-width="0"/>
  <rect fill="#960909" height="2.58" id="svg_21" stroke="#000000" stroke-width="0" width="35.66" x="60.22" y="79.21"/>
  <path d="m60.34,81.69l2.92,8.43l1.35,-8.43l-4.27,0z" fill="#700505" id="svg_27" stroke="#000000" stroke-width="0"/>
  <path d="m95.42,81.57l-2.38,8.65l-1.92,-8.41l4.3,-0.24z" fill="#700505" id="svg_29" stroke="#000000" stroke-width="0" transform="matrix(1 0 0 1 0 0) rotate(3.70151 93.2714 85.8936)"/>
  <rect fill="#ce7373" height="8.82" id="svg_32" stroke="#000000" stroke-width="0" width="2.59" x="67.53" y="81.76"/>
  <rect fill="#ce7373" height="8.82" id="svg_33" stroke="#000000" stroke-width="0" width="2.59" x="75.88" y="81.76"/>
  <path d="m82.27,81.82c0,0 2.27,30.76 2.27,30.76c0,0 11.67,-0.45 11.67,-0.45c0,0 -5,-30.31 -5,-30.31c0,0 -8.94,0 -8.94,0z" fill="#a50606" id="svg_35" stroke="#000000" stroke-width="0" transform="rotate(0.460198 89.2424 97.197)"/>
  <rect fill="#ce7373" height="8.82" id="svg_34" stroke="#000000" stroke-width="0" width="2.59" x="84.24" y="81.76"/>
  <path d="m84.39,112.58l12.12,0l4.24,26.67l-15.3,0l-1.06,-26.67z" fill="#c9c1c1" id="svg_36" stroke="#000000" stroke-width="0" transform="matrix(1 0 0 1 0 0)"/>
  <path d="m85.61,139.39l15,0l6.36,39.7l-20.3,0.15l-1.06,-39.85z" fill="#960303" id="svg_37" stroke="#000000" stroke-width="0"/>
  <path d="m-1.68,233.95c59.51,9.02 54.84,14.19 110.42,11.24c123.14,-13.67 166.4,-15.54 167.02,-15.54c0.63,0 71.56,-7 87.88,-6.14c52.13,0 103.16,7.72 134.57,12.42c30.54,3.42 73.04,9.51 97.68,8.47c33.81,-3.61 106.71,-10.44 106.08,-11.06c4.61,7.08 1.88,26.41 1.26,25.8c-0.63,-0.61 -699.61,5.74 -706.16,0c1.31,-1.04 1.26,-25.18 1.26,-25.18z" fill="#41a2fc" id="svg_41" stroke="#000000" stroke-width="0" transform="matrix(1 0 0 1 0 0)"/>
  <path d="m44.08,166.96l-10.86,3.97c0,0 -0.34,2.76 1.03,2.76c1.38,0 4.48,-1.72 4.14,-1.72c-0.34,0 3.1,-2.07 3.79,-0.69c0.69,1.38 0.34,3.45 1.03,3.45c0.69,0 2.41,-1.03 3.1,0c0.69,1.03 0.34,2.41 1.03,2.41c0.69,0 2.41,-1.38 3.1,-1.38c0.69,0 3.79,0.69 4.48,0.69c0.69,0 1.38,-1.38 3.45,-1.38c2.07,0 2.76,1.03 4.48,1.72c1.72,0.69 3.45,-1.38 5.86,-1.03c2.41,0.34 5.52,2.07 6.9,2.07c1.38,0 2.76,-1.72 5.17,-1.38c2.41,0.34 4.14,0.69 6.21,0.69c2.07,0 3.79,-1.38 5.17,-1.38c1.38,0 2.41,0.69 3.45,0.69c1.03,0 2.07,-0.69 4.48,-0.69c2.41,0 3.1,0 4.14,0c1.03,0 3.1,0 4.48,0c1.38,0 6.55,-0.69 6.21,-0.69c-0.34,0 4.48,-3.1 5.17,-2.41c0.69,0.69 7.93,2.76 7.59,2.76c-0.34,0 3.1,2.07 -0.34,3.79c-3.45,1.72 -7.93,1.03 -10.34,2.41c-2.41,1.38 -16.21,1.72 -16.55,1.72c-0.34,0 -11.38,1.03 -14.48,0.69c-3.1,-0.34 -14.83,-1.38 -15.52,-1.38c-0.69,0 -8.28,1.03 -10.34,-0.34c-2.07,-1.38 -2.76,-0.69 -5.17,0.69c-2.41,1.38 -6.21,3.1 -6.55,2.76c-0.34,-0.34 -8.97,-2.76 -6.21,-0.34c2.76,2.41 2.76,2.76 2.41,2.76c-0.34,0 5.17,2.76 5.86,2.76c0.69,0 4.48,-0.69 4.48,0c0,0.69 -8.97,3.1 -9.31,3.1c-0.34,0 -6.55,-1.03 -7.93,-1.03c-1.38,0 -11.72,-1.38 -11.72,-1.38c0,0 -5.52,1.72 -6.21,1.38c-0.69,-0.34 -7.24,-3.1 -7.59,-3.1c-0.34,0 -5.86,0.69 -8.28,0.69c-2.41,0 -8.62,-3.1 -8.28,-3.45c0.34,-0.34 1.72,-29.66 2.07,-30c0.34,-0.34 1.38,-0.69 3.1,-0.69c1.72,0 4.48,-0.69 6.21,-0.69c1.72,0 12.07,-1.72 11.72,-1.72c-0.34,0 6.55,0 6.9,0c0.34,0 4.48,0.34 5.52,0.69c1.03,0.34 5.86,3.45 5.52,3.45c-0.34,0 3.1,2.41 3.79,3.1c0.69,0.69 4.83,0.69 4.83,0.69c0,0 6.33,-2.62 7.24,-0.69" fill="#18af80" id="svg_43" stroke="#000000" stroke-width="0"/>
  <rect fill="#c9c1c1" height="27.03" id="svg_45" stroke="#000000" stroke-width="0" transform="matrix(1 0 0 1 0 0)" width="26.49" x="64.59" y="52.16"/>
  <rect fill="#aa9e9e" height="14.86" id="svg_46" stroke="#000000" stroke-width="0" width="10.27" x="77.03" y="57.57"/>
  <ellipse cx="79.73" cy="64.59" fill="#ffffaa" id="svg_47" rx="5.14" ry="5.14" stroke="#000000" stroke-width="0"/>
  <rect fill="#eae5e5" height="27.03" id="svg_48" stroke="#000000" stroke-width="0" width="14.05" x="64.32" y="52.16"/>
  <rect fill="#d8d8d8" height="26.49" id="svg_49" stroke="#000000" stroke-width="0" width="7.03" x="64.59" y="52.57"/>
  <rect fill="#000000" fill-opacity="0" height="12.7" id="svg_52" stroke="#700505" transform="matrix(1 0 0 1 0 0)" width="35.41" x="60.27" y="66.76"/>
  <rect fill="#000000" fill-opacity="0" height="12.7" id="svg_53" stroke="#700505" width="0.27" x="66.89" y="66.49"/>
  <rect fill="#000000" fill-opacity="0" height="12.7" id="svg_54" stroke="#700505" width="0.27" x="75" y="66.49"/>
  <rect fill="#000000" fill-opacity="0" height="12.7" id="svg_55" stroke="#700505" width="0.27" x="83.11" y="66.49"/>
  <rect fill="#000000" fill-opacity="0" height="12.7" id="svg_56" stroke="#700505" width="0.27" x="91.22" y="66.49"/>
  <rect fill="#b20000" height="5.79" id="svg_57" stroke="#700505" stroke-width="0" width="6.58" x="74.21" y="32.11"/>
  <ellipse cx="77.37" cy="28.68" fill="#c61717" id="svg_58" rx="5.79" ry="6.05" stroke="#700505" stroke-width="0"/>
  <rect fill="#007fff" height="2" id="svg_61" stroke="#700505" stroke-width="0" transform="rotate(5.59926 612.007 127.53)" width="141.67" x="541.17" y="126.53"/>
  <rect fill="#007fff" height="13.43" id="svg_64" stroke="#700505" stroke-width="0" transform="matrix(0.995799 0.091567 -0.091567 0.995799 13.5696 -57.7629)" width="19.43" x="627.14" y="112.23"/>
  <rect fill="#f2f235" height="13.43" id="svg_65" stroke="#700505" stroke-width="0" transform="matrix(0.995799 0.091567 -0.091567 0.995799 13.7546 -59.5109)" width="19.43" x="646" y="113.4"/>
  <rect fill="#96e547" height="13.43" id="svg_66" stroke="#700505" stroke-width="0" transform="matrix(0.995799 0.091567 -0.091567 0.995799 14.0242 -61.3862)" width="19.43" x="665.43" y="115.51"/>
  <rect fill="#aff469" height="13.43" id="svg_69" stroke="#700505" stroke-width="0" transform="matrix(0.995799 0.091567 -0.091567 0.995799 13.5696 -57.7629)" width="19.43" x="627.13" y="99.61"/>
  <rect fill="#ed9644" height="13.43" id="svg_68" stroke="#700505" stroke-width="0" transform="matrix(0.995799 0.091567 -0.091567 0.995799 13.7546 -59.5109)" width="19.43" x="646.58" y="101.01"/>
  <rect fill="#f2f260" height="13.43" id="svg_67" stroke="#700505" stroke-width="0" transform="matrix(0.995799 0.091567 -0.091567 0.995799 14.0242 -61.3862)" width="19.43" x="666.01" y="103.12"/>
 </g>
</svg>